<mxfile host="app.diagrams.net" agent="Mozilla/5.0 (Windows NT 10.0; Win64; x64) AppleWebKit/537.36 (KHTML, like Gecko) Chrome/131.0.0.0 Safari/537.36 Edg/131.0.0.0" version="25.0.3">
  <diagram name="Page-1" id="2YBvvXClWsGukQMizWep">
    <mxGraphModel dx="2316" dy="1273" grid="1" gridSize="10" guides="1" tooltips="1" connect="1" arrows="1" fold="1" page="1" pageScale="1" pageWidth="850" pageHeight="1100" math="0" shadow="0">
      <root>
        <mxCell id="0" />
        <mxCell id="1" parent="0" />
        <mxCell id="aM9ryv3xv72pqoxQDRHE-1" value="On-Prem Core" style="shape=umlLifeline;perimeter=lifelinePerimeter;whiteSpace=wrap;html=1;container=0;dropTarget=0;collapsible=0;recursiveResize=0;outlineConnect=0;portConstraint=eastwest;newEdgeStyle={&quot;edgeStyle&quot;:&quot;elbowEdgeStyle&quot;,&quot;elbow&quot;:&quot;vertical&quot;,&quot;curved&quot;:0,&quot;rounded&quot;:0};" parent="1" vertex="1">
          <mxGeometry x="40" y="40" width="100" height="300" as="geometry" />
        </mxCell>
        <mxCell id="aM9ryv3xv72pqoxQDRHE-2" value="" style="html=1;points=[];perimeter=orthogonalPerimeter;outlineConnect=0;targetShapes=umlLifeline;portConstraint=eastwest;newEdgeStyle={&quot;edgeStyle&quot;:&quot;elbowEdgeStyle&quot;,&quot;elbow&quot;:&quot;vertical&quot;,&quot;curved&quot;:0,&quot;rounded&quot;:0};" parent="aM9ryv3xv72pqoxQDRHE-1" vertex="1">
          <mxGeometry x="45" y="70" width="10" height="190" as="geometry" />
        </mxCell>
        <mxCell id="aM9ryv3xv72pqoxQDRHE-3" value="dispatch" style="html=1;verticalAlign=bottom;startArrow=oval;endArrow=block;startSize=8;edgeStyle=elbowEdgeStyle;elbow=vertical;curved=0;rounded=0;" parent="aM9ryv3xv72pqoxQDRHE-1" target="aM9ryv3xv72pqoxQDRHE-2" edge="1">
          <mxGeometry relative="1" as="geometry">
            <mxPoint x="-15" y="70" as="sourcePoint" />
          </mxGeometry>
        </mxCell>
        <mxCell id="aM9ryv3xv72pqoxQDRHE-5" value="Apigee" style="shape=umlLifeline;perimeter=lifelinePerimeter;whiteSpace=wrap;html=1;container=0;dropTarget=0;collapsible=0;recursiveResize=0;outlineConnect=0;portConstraint=eastwest;newEdgeStyle={&quot;edgeStyle&quot;:&quot;elbowEdgeStyle&quot;,&quot;elbow&quot;:&quot;vertical&quot;,&quot;curved&quot;:0,&quot;rounded&quot;:0};" parent="1" vertex="1">
          <mxGeometry x="161" y="40" width="100" height="300" as="geometry" />
        </mxCell>
        <mxCell id="aM9ryv3xv72pqoxQDRHE-6" value="" style="html=1;points=[];perimeter=orthogonalPerimeter;outlineConnect=0;targetShapes=umlLifeline;portConstraint=eastwest;newEdgeStyle={&quot;edgeStyle&quot;:&quot;elbowEdgeStyle&quot;,&quot;elbow&quot;:&quot;vertical&quot;,&quot;curved&quot;:0,&quot;rounded&quot;:0};" parent="aM9ryv3xv72pqoxQDRHE-5" vertex="1">
          <mxGeometry x="45" y="80" width="10" height="170" as="geometry" />
        </mxCell>
        <mxCell id="aM9ryv3xv72pqoxQDRHE-7" value="Http Request" style="html=1;verticalAlign=bottom;endArrow=block;edgeStyle=elbowEdgeStyle;elbow=vertical;curved=0;rounded=0;" parent="1" source="aM9ryv3xv72pqoxQDRHE-2" target="aM9ryv3xv72pqoxQDRHE-6" edge="1">
          <mxGeometry relative="1" as="geometry">
            <mxPoint x="195" y="130" as="sourcePoint" />
            <Array as="points">
              <mxPoint x="180" y="120" />
            </Array>
          </mxGeometry>
        </mxCell>
        <mxCell id="aM9ryv3xv72pqoxQDRHE-8" value="Http Response" style="html=1;verticalAlign=bottom;endArrow=open;dashed=1;endSize=8;edgeStyle=elbowEdgeStyle;elbow=vertical;curved=0;rounded=0;" parent="1" source="aM9ryv3xv72pqoxQDRHE-6" target="aM9ryv3xv72pqoxQDRHE-2" edge="1">
          <mxGeometry relative="1" as="geometry">
            <mxPoint x="195" y="205" as="targetPoint" />
            <Array as="points">
              <mxPoint x="190" y="280" />
            </Array>
          </mxGeometry>
        </mxCell>
        <mxCell id="pxo-jpmPZX1hCJj8SDYN-1" value="Api(Nginx)" style="shape=umlLifeline;perimeter=lifelinePerimeter;whiteSpace=wrap;html=1;container=0;dropTarget=0;collapsible=0;recursiveResize=0;outlineConnect=0;portConstraint=eastwest;newEdgeStyle={&quot;edgeStyle&quot;:&quot;elbowEdgeStyle&quot;,&quot;elbow&quot;:&quot;vertical&quot;,&quot;curved&quot;:0,&quot;rounded&quot;:0};" parent="1" vertex="1">
          <mxGeometry x="281" y="41" width="100" height="269" as="geometry" />
        </mxCell>
        <mxCell id="pxo-jpmPZX1hCJj8SDYN-2" value="" style="html=1;points=[];perimeter=orthogonalPerimeter;outlineConnect=0;targetShapes=umlLifeline;portConstraint=eastwest;newEdgeStyle={&quot;edgeStyle&quot;:&quot;elbowEdgeStyle&quot;,&quot;elbow&quot;:&quot;vertical&quot;,&quot;curved&quot;:0,&quot;rounded&quot;:0};" parent="pxo-jpmPZX1hCJj8SDYN-1" vertex="1">
          <mxGeometry x="45" y="90" width="10" height="140" as="geometry" />
        </mxCell>
        <mxCell id="pxo-jpmPZX1hCJj8SDYN-3" value="Http Request" style="html=1;verticalAlign=bottom;endArrow=block;edgeStyle=elbowEdgeStyle;elbow=vertical;curved=0;rounded=0;" parent="1" edge="1">
          <mxGeometry relative="1" as="geometry">
            <mxPoint x="217" y="134" as="sourcePoint" />
            <Array as="points">
              <mxPoint x="302" y="134" />
            </Array>
            <mxPoint x="328" y="134" as="targetPoint" />
          </mxGeometry>
        </mxCell>
        <mxCell id="pxo-jpmPZX1hCJj8SDYN-4" value="Http Response" style="html=1;verticalAlign=bottom;endArrow=open;dashed=1;endSize=8;edgeStyle=elbowEdgeStyle;elbow=vertical;curved=0;rounded=0;" parent="1" edge="1">
          <mxGeometry relative="1" as="geometry">
            <mxPoint x="215" y="257" as="targetPoint" />
            <Array as="points">
              <mxPoint x="310" y="257" />
            </Array>
            <mxPoint x="326" y="257" as="sourcePoint" />
          </mxGeometry>
        </mxCell>
        <mxCell id="pxo-jpmPZX1hCJj8SDYN-5" value="EventPublisher" style="shape=umlLifeline;perimeter=lifelinePerimeter;whiteSpace=wrap;html=1;container=0;dropTarget=0;collapsible=0;recursiveResize=0;outlineConnect=0;portConstraint=eastwest;newEdgeStyle={&quot;edgeStyle&quot;:&quot;elbowEdgeStyle&quot;,&quot;elbow&quot;:&quot;vertical&quot;,&quot;curved&quot;:0,&quot;rounded&quot;:0};" parent="1" vertex="1">
          <mxGeometry x="401" y="41" width="100" height="239" as="geometry" />
        </mxCell>
        <mxCell id="pxo-jpmPZX1hCJj8SDYN-6" value="" style="html=1;points=[];perimeter=orthogonalPerimeter;outlineConnect=0;targetShapes=umlLifeline;portConstraint=eastwest;newEdgeStyle={&quot;edgeStyle&quot;:&quot;elbowEdgeStyle&quot;,&quot;elbow&quot;:&quot;vertical&quot;,&quot;curved&quot;:0,&quot;rounded&quot;:0};" parent="pxo-jpmPZX1hCJj8SDYN-5" vertex="1">
          <mxGeometry x="45" y="120" width="10" height="90" as="geometry" />
        </mxCell>
        <mxCell id="pxo-jpmPZX1hCJj8SDYN-7" value="Http Request" style="html=1;verticalAlign=bottom;endArrow=block;edgeStyle=elbowEdgeStyle;elbow=vertical;curved=0;rounded=0;" parent="1" edge="1">
          <mxGeometry relative="1" as="geometry">
            <mxPoint x="337" y="159" as="sourcePoint" />
            <Array as="points">
              <mxPoint x="422" y="159" />
            </Array>
            <mxPoint x="448" y="159" as="targetPoint" />
          </mxGeometry>
        </mxCell>
        <mxCell id="pxo-jpmPZX1hCJj8SDYN-8" value="Http Response" style="html=1;verticalAlign=bottom;endArrow=open;dashed=1;endSize=8;edgeStyle=elbowEdgeStyle;elbow=vertical;curved=0;rounded=0;" parent="1" edge="1">
          <mxGeometry relative="1" as="geometry">
            <mxPoint x="335" y="242" as="targetPoint" />
            <Array as="points">
              <mxPoint x="430" y="242" />
            </Array>
            <mxPoint x="446" y="242" as="sourcePoint" />
          </mxGeometry>
        </mxCell>
        <mxCell id="pxo-jpmPZX1hCJj8SDYN-9" value="NotifiConfig DB" style="shape=umlLifeline;perimeter=lifelinePerimeter;whiteSpace=wrap;html=1;container=0;dropTarget=0;collapsible=0;recursiveResize=0;outlineConnect=0;portConstraint=eastwest;newEdgeStyle={&quot;edgeStyle&quot;:&quot;elbowEdgeStyle&quot;,&quot;elbow&quot;:&quot;vertical&quot;,&quot;curved&quot;:0,&quot;rounded&quot;:0};" parent="1" vertex="1">
          <mxGeometry x="521" y="40" width="100" height="210" as="geometry" />
        </mxCell>
        <mxCell id="pxo-jpmPZX1hCJj8SDYN-10" value="" style="html=1;points=[];perimeter=orthogonalPerimeter;outlineConnect=0;targetShapes=umlLifeline;portConstraint=eastwest;newEdgeStyle={&quot;edgeStyle&quot;:&quot;elbowEdgeStyle&quot;,&quot;elbow&quot;:&quot;vertical&quot;,&quot;curved&quot;:0,&quot;rounded&quot;:0};" parent="pxo-jpmPZX1hCJj8SDYN-9" vertex="1">
          <mxGeometry x="45" y="140" width="10" height="40" as="geometry" />
        </mxCell>
        <mxCell id="pxo-jpmPZX1hCJj8SDYN-11" value="Valdate Client Config" style="html=1;verticalAlign=bottom;endArrow=block;edgeStyle=elbowEdgeStyle;elbow=vertical;curved=0;rounded=0;" parent="1" edge="1">
          <mxGeometry x="0.009" relative="1" as="geometry">
            <mxPoint x="456" y="182" as="sourcePoint" />
            <Array as="points">
              <mxPoint x="541" y="182" />
            </Array>
            <mxPoint x="567" y="182" as="targetPoint" />
            <mxPoint as="offset" />
          </mxGeometry>
        </mxCell>
        <mxCell id="pxo-jpmPZX1hCJj8SDYN-12" value="NotifiSubscription DB" style="shape=umlLifeline;perimeter=lifelinePerimeter;whiteSpace=wrap;html=1;container=0;dropTarget=0;collapsible=0;recursiveResize=0;outlineConnect=0;portConstraint=eastwest;newEdgeStyle={&quot;edgeStyle&quot;:&quot;elbowEdgeStyle&quot;,&quot;elbow&quot;:&quot;vertical&quot;,&quot;curved&quot;:0,&quot;rounded&quot;:0};" parent="1" vertex="1">
          <mxGeometry x="641" y="41" width="100" height="1399" as="geometry" />
        </mxCell>
        <mxCell id="pxo-jpmPZX1hCJj8SDYN-13" value="" style="html=1;points=[];perimeter=orthogonalPerimeter;outlineConnect=0;targetShapes=umlLifeline;portConstraint=eastwest;newEdgeStyle={&quot;edgeStyle&quot;:&quot;elbowEdgeStyle&quot;,&quot;elbow&quot;:&quot;vertical&quot;,&quot;curved&quot;:0,&quot;rounded&quot;:0};" parent="pxo-jpmPZX1hCJj8SDYN-12" vertex="1">
          <mxGeometry x="45" y="510" width="10" height="700" as="geometry" />
        </mxCell>
        <mxCell id="pxo-jpmPZX1hCJj8SDYN-14" value="RabbitMQ" style="shape=umlLifeline;perimeter=lifelinePerimeter;whiteSpace=wrap;html=1;container=0;dropTarget=0;collapsible=0;recursiveResize=0;outlineConnect=0;portConstraint=eastwest;newEdgeStyle={&quot;edgeStyle&quot;:&quot;elbowEdgeStyle&quot;,&quot;elbow&quot;:&quot;vertical&quot;,&quot;curved&quot;:0,&quot;rounded&quot;:0};" parent="1" vertex="1">
          <mxGeometry x="761" y="41" width="100" height="1399" as="geometry" />
        </mxCell>
        <mxCell id="pxo-jpmPZX1hCJj8SDYN-15" value="" style="html=1;points=[];perimeter=orthogonalPerimeter;outlineConnect=0;targetShapes=umlLifeline;portConstraint=eastwest;newEdgeStyle={&quot;edgeStyle&quot;:&quot;elbowEdgeStyle&quot;,&quot;elbow&quot;:&quot;vertical&quot;,&quot;curved&quot;:0,&quot;rounded&quot;:0};" parent="pxo-jpmPZX1hCJj8SDYN-14" vertex="1">
          <mxGeometry x="45" y="80" width="10" height="1280" as="geometry" />
        </mxCell>
        <mxCell id="pxo-jpmPZX1hCJj8SDYN-16" value="Valid Payload" style="html=1;verticalAlign=bottom;endArrow=block;edgeStyle=elbowEdgeStyle;elbow=vertical;curved=0;rounded=0;" parent="1" edge="1">
          <mxGeometry relative="1" as="geometry">
            <mxPoint x="457" y="234" as="sourcePoint" />
            <Array as="points">
              <mxPoint x="542" y="234" />
            </Array>
            <mxPoint x="810.5" y="234" as="targetPoint" />
          </mxGeometry>
        </mxCell>
        <mxCell id="pxo-jpmPZX1hCJj8SDYN-17" value="eventsubcriber" style="shape=umlLifeline;perimeter=lifelinePerimeter;whiteSpace=wrap;html=1;container=0;dropTarget=0;collapsible=0;recursiveResize=0;outlineConnect=0;portConstraint=eastwest;newEdgeStyle={&quot;edgeStyle&quot;:&quot;elbowEdgeStyle&quot;,&quot;elbow&quot;:&quot;vertical&quot;,&quot;curved&quot;:0,&quot;rounded&quot;:0};" parent="1" vertex="1">
          <mxGeometry x="880" y="41" width="100" height="489" as="geometry" />
        </mxCell>
        <mxCell id="pxo-jpmPZX1hCJj8SDYN-18" value="" style="html=1;points=[];perimeter=orthogonalPerimeter;outlineConnect=0;targetShapes=umlLifeline;portConstraint=eastwest;newEdgeStyle={&quot;edgeStyle&quot;:&quot;elbowEdgeStyle&quot;,&quot;elbow&quot;:&quot;vertical&quot;,&quot;curved&quot;:0,&quot;rounded&quot;:0};" parent="pxo-jpmPZX1hCJj8SDYN-17" vertex="1">
          <mxGeometry x="45" y="222" width="10" height="228" as="geometry" />
        </mxCell>
        <mxCell id="pxo-jpmPZX1hCJj8SDYN-19" value="Read Valid Payload" style="html=1;verticalAlign=bottom;endArrow=block;edgeStyle=elbowEdgeStyle;elbow=vertical;curved=0;rounded=0;" parent="1" edge="1">
          <mxGeometry x="0.009" relative="1" as="geometry">
            <mxPoint x="815" y="280" as="sourcePoint" />
            <Array as="points">
              <mxPoint x="900" y="280" />
            </Array>
            <mxPoint x="926" y="280" as="targetPoint" />
            <mxPoint as="offset" />
          </mxGeometry>
        </mxCell>
        <mxCell id="pxo-jpmPZX1hCJj8SDYN-20" value="notifivoltagesecuredata&lt;div&gt;&lt;br&gt;&lt;/div&gt;" style="shape=umlLifeline;perimeter=lifelinePerimeter;whiteSpace=wrap;html=1;container=0;dropTarget=0;collapsible=0;recursiveResize=0;outlineConnect=0;portConstraint=eastwest;newEdgeStyle={&quot;edgeStyle&quot;:&quot;elbowEdgeStyle&quot;,&quot;elbow&quot;:&quot;vertical&quot;,&quot;curved&quot;:0,&quot;rounded&quot;:0};" parent="1" vertex="1">
          <mxGeometry x="1001" y="40" width="139" height="590" as="geometry" />
        </mxCell>
        <mxCell id="pxo-jpmPZX1hCJj8SDYN-21" value="" style="html=1;points=[];perimeter=orthogonalPerimeter;outlineConnect=0;targetShapes=umlLifeline;portConstraint=eastwest;newEdgeStyle={&quot;edgeStyle&quot;:&quot;elbowEdgeStyle&quot;,&quot;elbow&quot;:&quot;vertical&quot;,&quot;curved&quot;:0,&quot;rounded&quot;:0};" parent="pxo-jpmPZX1hCJj8SDYN-20" vertex="1">
          <mxGeometry x="65" y="254" width="10" height="316" as="geometry" />
        </mxCell>
        <mxCell id="pxo-jpmPZX1hCJj8SDYN-22" value="Sensitive data field" style="html=1;verticalAlign=bottom;endArrow=block;edgeStyle=elbowEdgeStyle;elbow=vertical;curved=0;rounded=0;" parent="1" target="pxo-jpmPZX1hCJj8SDYN-20" edge="1">
          <mxGeometry x="0.009" relative="1" as="geometry">
            <mxPoint x="934" y="295" as="sourcePoint" />
            <Array as="points">
              <mxPoint x="1000" y="295" />
            </Array>
            <mxPoint x="1045" y="295" as="targetPoint" />
            <mxPoint as="offset" />
          </mxGeometry>
        </mxCell>
        <mxCell id="pxo-jpmPZX1hCJj8SDYN-27" value="Encrypt Sensitive Field" style="endArrow=block;endFill=1;html=1;edgeStyle=orthogonalEdgeStyle;align=left;verticalAlign=top;rounded=0;jumpSize=3;strokeWidth=1;" parent="1" edge="1">
          <mxGeometry x="-0.8" relative="1" as="geometry">
            <mxPoint x="1077" y="340" as="sourcePoint" />
            <mxPoint x="1077" y="370" as="targetPoint" />
            <Array as="points">
              <mxPoint x="1077" y="341" />
              <mxPoint x="1117" y="341" />
              <mxPoint x="1117" y="370" />
            </Array>
            <mxPoint as="offset" />
          </mxGeometry>
        </mxCell>
        <mxCell id="pxo-jpmPZX1hCJj8SDYN-36" value="" style="endArrow=block;endFill=1;html=1;edgeStyle=orthogonalEdgeStyle;align=left;verticalAlign=top;rounded=0;" parent="1" edge="1">
          <mxGeometry x="-0.0769" y="30" relative="1" as="geometry">
            <mxPoint x="1064" y="400" as="sourcePoint" />
            <mxPoint x="934" y="400" as="targetPoint" />
            <mxPoint as="offset" />
          </mxGeometry>
        </mxCell>
        <mxCell id="pxo-jpmPZX1hCJj8SDYN-38" value="Encrypted Data Field" style="edgeLabel;html=1;align=center;verticalAlign=middle;resizable=0;points=[];" parent="pxo-jpmPZX1hCJj8SDYN-36" vertex="1" connectable="0">
          <mxGeometry x="-0.1077" relative="1" as="geometry">
            <mxPoint as="offset" />
          </mxGeometry>
        </mxCell>
        <mxCell id="pxo-jpmPZX1hCJj8SDYN-39" value="Kafka Brokers" style="shape=umlLifeline;perimeter=lifelinePerimeter;whiteSpace=wrap;html=1;container=0;dropTarget=0;collapsible=0;recursiveResize=0;outlineConnect=0;portConstraint=eastwest;newEdgeStyle={&quot;edgeStyle&quot;:&quot;elbowEdgeStyle&quot;,&quot;elbow&quot;:&quot;vertical&quot;,&quot;curved&quot;:0,&quot;rounded&quot;:0};" parent="1" vertex="1">
          <mxGeometry x="1160" y="40" width="100" height="470" as="geometry" />
        </mxCell>
        <mxCell id="pxo-jpmPZX1hCJj8SDYN-40" value="" style="html=1;points=[];perimeter=orthogonalPerimeter;outlineConnect=0;targetShapes=umlLifeline;portConstraint=eastwest;newEdgeStyle={&quot;edgeStyle&quot;:&quot;elbowEdgeStyle&quot;,&quot;elbow&quot;:&quot;vertical&quot;,&quot;curved&quot;:0,&quot;rounded&quot;:0};" parent="pxo-jpmPZX1hCJj8SDYN-39" vertex="1">
          <mxGeometry x="45" y="380" width="10" height="70" as="geometry" />
        </mxCell>
        <mxCell id="pxo-jpmPZX1hCJj8SDYN-41" value="" style="html=1;verticalAlign=bottom;endArrow=block;edgeStyle=elbowEdgeStyle;elbow=vertical;curved=0;rounded=0;" parent="1" target="pxo-jpmPZX1hCJj8SDYN-40" edge="1">
          <mxGeometry x="0.009" relative="1" as="geometry">
            <mxPoint x="937" y="422" as="sourcePoint" />
            <Array as="points">
              <mxPoint x="1022" y="422" />
            </Array>
            <mxPoint x="1200" y="422" as="targetPoint" />
            <mxPoint as="offset" />
          </mxGeometry>
        </mxCell>
        <mxCell id="pxo-jpmPZX1hCJj8SDYN-42" value="Payload(TLS 1.2)" style="edgeLabel;html=1;align=center;verticalAlign=middle;resizable=0;points=[];" parent="pxo-jpmPZX1hCJj8SDYN-41" vertex="1" connectable="0">
          <mxGeometry x="0.3395" y="-3" relative="1" as="geometry">
            <mxPoint as="offset" />
          </mxGeometry>
        </mxCell>
        <mxCell id="pxo-jpmPZX1hCJj8SDYN-43" value="Eventconsumer" style="shape=umlLifeline;perimeter=lifelinePerimeter;whiteSpace=wrap;html=1;container=0;dropTarget=0;collapsible=0;recursiveResize=0;outlineConnect=0;portConstraint=eastwest;newEdgeStyle={&quot;edgeStyle&quot;:&quot;elbowEdgeStyle&quot;,&quot;elbow&quot;:&quot;vertical&quot;,&quot;curved&quot;:0,&quot;rounded&quot;:0};" parent="1" vertex="1">
          <mxGeometry x="1280" y="40" width="100" height="670" as="geometry" />
        </mxCell>
        <mxCell id="pxo-jpmPZX1hCJj8SDYN-44" value="" style="html=1;points=[];perimeter=orthogonalPerimeter;outlineConnect=0;targetShapes=umlLifeline;portConstraint=eastwest;newEdgeStyle={&quot;edgeStyle&quot;:&quot;elbowEdgeStyle&quot;,&quot;elbow&quot;:&quot;vertical&quot;,&quot;curved&quot;:0,&quot;rounded&quot;:0};" parent="pxo-jpmPZX1hCJj8SDYN-43" vertex="1">
          <mxGeometry x="45" y="380" width="10" height="270" as="geometry" />
        </mxCell>
        <mxCell id="pxo-jpmPZX1hCJj8SDYN-47" value="" style="html=1;verticalAlign=bottom;endArrow=block;edgeStyle=elbowEdgeStyle;elbow=vertical;curved=0;rounded=0;" parent="1" edge="1">
          <mxGeometry x="0.009" relative="1" as="geometry">
            <mxPoint x="1215" y="440" as="sourcePoint" />
            <Array as="points">
              <mxPoint x="1300" y="440" />
            </Array>
            <mxPoint x="1326" y="440" as="targetPoint" />
            <mxPoint as="offset" />
          </mxGeometry>
        </mxCell>
        <mxCell id="pxo-jpmPZX1hCJj8SDYN-48" value="Pull Org Specific&lt;div&gt;&amp;nbsp;topic for records&lt;/div&gt;" style="edgeLabel;html=1;align=center;verticalAlign=middle;resizable=0;points=[];" parent="pxo-jpmPZX1hCJj8SDYN-47" vertex="1" connectable="0">
          <mxGeometry x="-0.2036" y="-2" relative="1" as="geometry">
            <mxPoint as="offset" />
          </mxGeometry>
        </mxCell>
        <mxCell id="pxo-jpmPZX1hCJj8SDYN-49" value="" style="endArrow=block;endFill=1;html=1;edgeStyle=orthogonalEdgeStyle;align=left;verticalAlign=top;rounded=0;" parent="1" source="pxo-jpmPZX1hCJj8SDYN-43" edge="1">
          <mxGeometry x="-0.0769" y="30" relative="1" as="geometry">
            <mxPoint x="1206" y="530" as="sourcePoint" />
            <mxPoint x="1076" y="530" as="targetPoint" />
            <mxPoint as="offset" />
            <Array as="points">
              <mxPoint x="1179" y="530" />
              <mxPoint x="1179" y="531" />
            </Array>
          </mxGeometry>
        </mxCell>
        <mxCell id="pxo-jpmPZX1hCJj8SDYN-51" value="Encrypt/Decrypt of sensitive data fields" style="edgeLabel;html=1;align=center;verticalAlign=middle;resizable=0;points=[];" parent="pxo-jpmPZX1hCJj8SDYN-49" vertex="1" connectable="0">
          <mxGeometry x="-0.0153" y="5" relative="1" as="geometry">
            <mxPoint as="offset" />
          </mxGeometry>
        </mxCell>
        <mxCell id="pxo-jpmPZX1hCJj8SDYN-52" value="Decrypted Data" style="html=1;verticalAlign=bottom;endArrow=open;dashed=1;endSize=8;edgeStyle=elbowEdgeStyle;elbow=horizontal;curved=0;rounded=0;" parent="1" edge="1">
          <mxGeometry x="0.002" relative="1" as="geometry">
            <mxPoint x="1329.5" y="562" as="targetPoint" />
            <Array as="points">
              <mxPoint x="1150" y="562" />
              <mxPoint x="1175" y="562" />
            </Array>
            <mxPoint x="1070" y="562" as="sourcePoint" />
            <mxPoint as="offset" />
          </mxGeometry>
        </mxCell>
        <mxCell id="pxo-jpmPZX1hCJj8SDYN-53" value="" style="endArrow=block;endFill=1;html=1;edgeStyle=orthogonalEdgeStyle;align=left;verticalAlign=top;rounded=0;jumpSize=3;strokeWidth=1;" parent="1" edge="1">
          <mxGeometry x="-0.1268" y="-7" relative="1" as="geometry">
            <mxPoint x="1337" y="458" as="sourcePoint" />
            <mxPoint x="1337" y="520" as="targetPoint" />
            <Array as="points">
              <mxPoint x="1337" y="459" />
              <mxPoint x="1377" y="459" />
              <mxPoint x="1377" y="520" />
              <mxPoint x="1337" y="520" />
            </Array>
            <mxPoint as="offset" />
          </mxGeometry>
        </mxCell>
        <mxCell id="pxo-jpmPZX1hCJj8SDYN-54" value="Hash and&lt;div&gt;masking&lt;/div&gt;&lt;div&gt;operations&lt;/div&gt;" style="edgeLabel;html=1;align=center;verticalAlign=middle;resizable=0;points=[];" parent="pxo-jpmPZX1hCJj8SDYN-53" vertex="1" connectable="0">
          <mxGeometry x="-0.0873" y="-1" relative="1" as="geometry">
            <mxPoint as="offset" />
          </mxGeometry>
        </mxCell>
        <mxCell id="pxo-jpmPZX1hCJj8SDYN-55" value="" style="endArrow=block;endFill=1;html=1;edgeStyle=orthogonalEdgeStyle;align=left;verticalAlign=top;rounded=0;jumpSize=3;strokeWidth=1;" parent="1" edge="1">
          <mxGeometry x="-0.1268" y="-7" relative="1" as="geometry">
            <mxPoint x="1336" y="571" as="sourcePoint" />
            <mxPoint x="1336" y="633" as="targetPoint" />
            <Array as="points">
              <mxPoint x="1336" y="572" />
              <mxPoint x="1376" y="572" />
              <mxPoint x="1376" y="633" />
              <mxPoint x="1336" y="633" />
            </Array>
            <mxPoint as="offset" />
          </mxGeometry>
        </mxCell>
        <mxCell id="pxo-jpmPZX1hCJj8SDYN-57" value="Further processing&lt;div&gt;for triggering&lt;/div&gt;" style="edgeLabel;html=1;align=center;verticalAlign=middle;resizable=0;points=[];" parent="pxo-jpmPZX1hCJj8SDYN-55" vertex="1" connectable="0">
          <mxGeometry x="-0.1014" y="3" relative="1" as="geometry">
            <mxPoint as="offset" />
          </mxGeometry>
        </mxCell>
        <mxCell id="pxo-jpmPZX1hCJj8SDYN-58" value="" style="endArrow=block;endFill=1;html=1;edgeStyle=orthogonalEdgeStyle;align=left;verticalAlign=top;rounded=0;" parent="1" edge="1">
          <mxGeometry x="-0.0769" y="30" relative="1" as="geometry">
            <mxPoint x="1323" y="669" as="sourcePoint" />
            <mxPoint x="810.3235294117649" y="668.9411764705881" as="targetPoint" />
            <mxPoint as="offset" />
            <Array as="points">
              <mxPoint x="1172" y="669" />
              <mxPoint x="1172" y="670" />
            </Array>
          </mxGeometry>
        </mxCell>
        <mxCell id="pxo-jpmPZX1hCJj8SDYN-59" value="Write updated data for triggering" style="edgeLabel;html=1;align=center;verticalAlign=middle;resizable=0;points=[];" parent="pxo-jpmPZX1hCJj8SDYN-58" vertex="1" connectable="0">
          <mxGeometry x="-0.0153" y="5" relative="1" as="geometry">
            <mxPoint as="offset" />
          </mxGeometry>
        </mxCell>
        <mxCell id="q_-s3Jo1m507ARNVv1Sw-1" value="Triggering" style="shape=umlLifeline;perimeter=lifelinePerimeter;whiteSpace=wrap;html=1;container=0;dropTarget=0;collapsible=0;recursiveResize=0;outlineConnect=0;portConstraint=eastwest;newEdgeStyle={&quot;edgeStyle&quot;:&quot;elbowEdgeStyle&quot;,&quot;elbow&quot;:&quot;vertical&quot;,&quot;curved&quot;:0,&quot;rounded&quot;:0};" vertex="1" parent="1">
          <mxGeometry x="1401" y="40" width="100" height="920" as="geometry" />
        </mxCell>
        <mxCell id="q_-s3Jo1m507ARNVv1Sw-2" value="" style="html=1;points=[];perimeter=orthogonalPerimeter;outlineConnect=0;targetShapes=umlLifeline;portConstraint=eastwest;newEdgeStyle={&quot;edgeStyle&quot;:&quot;elbowEdgeStyle&quot;,&quot;elbow&quot;:&quot;vertical&quot;,&quot;curved&quot;:0,&quot;rounded&quot;:0};" vertex="1" parent="q_-s3Jo1m507ARNVv1Sw-1">
          <mxGeometry x="45" y="640" width="10" height="200" as="geometry" />
        </mxCell>
        <mxCell id="q_-s3Jo1m507ARNVv1Sw-3" value="" style="endArrow=block;endFill=1;html=1;edgeStyle=orthogonalEdgeStyle;align=left;verticalAlign=top;rounded=0;" edge="1" parent="1">
          <mxGeometry x="-1" y="62" relative="1" as="geometry">
            <mxPoint x="810.5" y="704" as="sourcePoint" />
            <mxPoint x="1450.5" y="705" as="targetPoint" />
            <Array as="points">
              <mxPoint x="1121" y="704" />
              <mxPoint x="1121" y="705" />
            </Array>
            <mxPoint x="-60" y="48" as="offset" />
          </mxGeometry>
        </mxCell>
        <mxCell id="q_-s3Jo1m507ARNVv1Sw-4" value="1" style="edgeLabel;resizable=0;html=1;align=left;verticalAlign=bottom;" connectable="0" vertex="1" parent="q_-s3Jo1m507ARNVv1Sw-3">
          <mxGeometry x="-1" relative="1" as="geometry" />
        </mxCell>
        <mxCell id="q_-s3Jo1m507ARNVv1Sw-38" value="Read Data" style="edgeLabel;html=1;align=center;verticalAlign=middle;resizable=0;points=[];" vertex="1" connectable="0" parent="q_-s3Jo1m507ARNVv1Sw-3">
          <mxGeometry x="0.0271" y="5" relative="1" as="geometry">
            <mxPoint as="offset" />
          </mxGeometry>
        </mxCell>
        <mxCell id="q_-s3Jo1m507ARNVv1Sw-6" value="" style="endArrow=block;endFill=1;html=1;edgeStyle=orthogonalEdgeStyle;align=left;verticalAlign=top;rounded=0;jumpSize=3;strokeWidth=1;" edge="1" parent="1">
          <mxGeometry x="-0.1268" y="-7" relative="1" as="geometry">
            <mxPoint x="1456" y="725" as="sourcePoint" />
            <mxPoint x="1456" y="787" as="targetPoint" />
            <Array as="points">
              <mxPoint x="1456" y="750" />
              <mxPoint x="1496" y="750" />
              <mxPoint x="1496" y="787" />
            </Array>
            <mxPoint as="offset" />
          </mxGeometry>
        </mxCell>
        <mxCell id="q_-s3Jo1m507ARNVv1Sw-7" value="Validate Data" style="edgeLabel;html=1;align=center;verticalAlign=middle;resizable=0;points=[];" vertex="1" connectable="0" parent="q_-s3Jo1m507ARNVv1Sw-6">
          <mxGeometry x="-0.0873" y="-1" relative="1" as="geometry">
            <mxPoint y="17" as="offset" />
          </mxGeometry>
        </mxCell>
        <mxCell id="q_-s3Jo1m507ARNVv1Sw-8" value="" style="endArrow=block;endFill=1;html=1;edgeStyle=orthogonalEdgeStyle;align=left;verticalAlign=top;rounded=0;jumpSize=3;strokeWidth=1;" edge="1" parent="1">
          <mxGeometry x="-0.1268" y="-7" relative="1" as="geometry">
            <mxPoint x="1456" y="799" as="sourcePoint" />
            <mxPoint x="1456" y="861" as="targetPoint" />
            <Array as="points">
              <mxPoint x="1456" y="800" />
              <mxPoint x="1496" y="800" />
              <mxPoint x="1496" y="861" />
              <mxPoint x="1456" y="861" />
            </Array>
            <mxPoint as="offset" />
          </mxGeometry>
        </mxCell>
        <mxCell id="q_-s3Jo1m507ARNVv1Sw-9" value="check if user&lt;div&gt;has subscription&lt;/div&gt;&lt;div&gt;for alert type&lt;/div&gt;" style="edgeLabel;html=1;align=center;verticalAlign=middle;resizable=0;points=[];" vertex="1" connectable="0" parent="q_-s3Jo1m507ARNVv1Sw-8">
          <mxGeometry x="-0.0873" y="-1" relative="1" as="geometry">
            <mxPoint as="offset" />
          </mxGeometry>
        </mxCell>
        <mxCell id="q_-s3Jo1m507ARNVv1Sw-10" value="" style="endArrow=block;endFill=1;html=1;edgeStyle=orthogonalEdgeStyle;align=left;verticalAlign=top;rounded=0;" edge="1" parent="1">
          <mxGeometry x="-1" relative="1" as="geometry">
            <mxPoint x="697.5" y="739" as="sourcePoint" />
            <mxPoint x="1447" y="740" as="targetPoint" />
            <Array as="points">
              <mxPoint x="1136" y="739" />
              <mxPoint x="1136" y="740" />
            </Array>
            <mxPoint as="offset" />
          </mxGeometry>
        </mxCell>
        <mxCell id="q_-s3Jo1m507ARNVv1Sw-12" value="Get platform configured evalution rules and tenant configured alert settings" style="edgeLabel;html=1;align=center;verticalAlign=middle;resizable=0;points=[];" vertex="1" connectable="0" parent="q_-s3Jo1m507ARNVv1Sw-10">
          <mxGeometry x="-0.0281" y="-6" relative="1" as="geometry">
            <mxPoint x="3" y="-5" as="offset" />
          </mxGeometry>
        </mxCell>
        <mxCell id="q_-s3Jo1m507ARNVv1Sw-14" value="" style="endArrow=block;endFill=1;html=1;edgeStyle=orthogonalEdgeStyle;align=left;verticalAlign=top;rounded=0;" edge="1" parent="1" source="q_-s3Jo1m507ARNVv1Sw-1">
          <mxGeometry x="-0.0769" y="30" relative="1" as="geometry">
            <mxPoint x="1326.5" y="880" as="sourcePoint" />
            <mxPoint x="814.5" y="881" as="targetPoint" />
            <mxPoint as="offset" />
            <Array as="points">
              <mxPoint x="1176" y="880" />
              <mxPoint x="1176" y="881" />
            </Array>
          </mxGeometry>
        </mxCell>
        <mxCell id="q_-s3Jo1m507ARNVv1Sw-15" value="Write Data" style="edgeLabel;html=1;align=center;verticalAlign=middle;resizable=0;points=[];" vertex="1" connectable="0" parent="q_-s3Jo1m507ARNVv1Sw-14">
          <mxGeometry x="-0.0153" y="5" relative="1" as="geometry">
            <mxPoint as="offset" />
          </mxGeometry>
        </mxCell>
        <mxCell id="q_-s3Jo1m507ARNVv1Sw-16" value="Composition" style="shape=umlLifeline;perimeter=lifelinePerimeter;whiteSpace=wrap;html=1;container=0;dropTarget=0;collapsible=0;recursiveResize=0;outlineConnect=0;portConstraint=eastwest;newEdgeStyle={&quot;edgeStyle&quot;:&quot;elbowEdgeStyle&quot;,&quot;elbow&quot;:&quot;vertical&quot;,&quot;curved&quot;:0,&quot;rounded&quot;:0};" vertex="1" parent="1">
          <mxGeometry x="1520" y="41" width="100" height="1079" as="geometry" />
        </mxCell>
        <mxCell id="q_-s3Jo1m507ARNVv1Sw-17" value="" style="html=1;points=[];perimeter=orthogonalPerimeter;outlineConnect=0;targetShapes=umlLifeline;portConstraint=eastwest;newEdgeStyle={&quot;edgeStyle&quot;:&quot;elbowEdgeStyle&quot;,&quot;elbow&quot;:&quot;vertical&quot;,&quot;curved&quot;:0,&quot;rounded&quot;:0};" vertex="1" parent="q_-s3Jo1m507ARNVv1Sw-16">
          <mxGeometry x="45" y="840" width="10" height="210" as="geometry" />
        </mxCell>
        <mxCell id="q_-s3Jo1m507ARNVv1Sw-18" value="" style="endArrow=block;endFill=1;html=1;edgeStyle=orthogonalEdgeStyle;align=left;verticalAlign=top;rounded=0;" edge="1" parent="1" target="q_-s3Jo1m507ARNVv1Sw-16">
          <mxGeometry x="-1" y="62" relative="1" as="geometry">
            <mxPoint x="820.5" y="896" as="sourcePoint" />
            <mxPoint x="1460.5" y="897" as="targetPoint" />
            <Array as="points">
              <mxPoint x="1131" y="896" />
              <mxPoint x="1131" y="897" />
            </Array>
            <mxPoint x="-60" y="48" as="offset" />
          </mxGeometry>
        </mxCell>
        <mxCell id="q_-s3Jo1m507ARNVv1Sw-19" value="1" style="edgeLabel;resizable=0;html=1;align=left;verticalAlign=bottom;" connectable="0" vertex="1" parent="q_-s3Jo1m507ARNVv1Sw-18">
          <mxGeometry x="-1" relative="1" as="geometry" />
        </mxCell>
        <mxCell id="q_-s3Jo1m507ARNVv1Sw-20" value="Read Data" style="edgeLabel;html=1;align=center;verticalAlign=middle;resizable=0;points=[];" vertex="1" connectable="0" parent="q_-s3Jo1m507ARNVv1Sw-18">
          <mxGeometry x="-0.0281" y="-6" relative="1" as="geometry">
            <mxPoint x="23" y="-4" as="offset" />
          </mxGeometry>
        </mxCell>
        <mxCell id="q_-s3Jo1m507ARNVv1Sw-21" value="" style="endArrow=block;endFill=1;html=1;edgeStyle=orthogonalEdgeStyle;align=left;verticalAlign=top;rounded=0;" edge="1" parent="1" source="q_-s3Jo1m507ARNVv1Sw-16">
          <mxGeometry x="-0.0769" y="30" relative="1" as="geometry">
            <mxPoint x="1334" y="937" as="sourcePoint" />
            <mxPoint x="697.5" y="938" as="targetPoint" />
            <mxPoint as="offset" />
            <Array as="points">
              <mxPoint x="1059" y="937" />
              <mxPoint x="1059" y="938" />
            </Array>
          </mxGeometry>
        </mxCell>
        <mxCell id="q_-s3Jo1m507ARNVv1Sw-22" value="Create Deliverable alert from tenant configured template" style="edgeLabel;html=1;align=center;verticalAlign=middle;resizable=0;points=[];" vertex="1" connectable="0" parent="q_-s3Jo1m507ARNVv1Sw-21">
          <mxGeometry x="-0.0153" y="5" relative="1" as="geometry">
            <mxPoint as="offset" />
          </mxGeometry>
        </mxCell>
        <mxCell id="q_-s3Jo1m507ARNVv1Sw-23" value="" style="endArrow=block;endFill=1;html=1;edgeStyle=orthogonalEdgeStyle;align=left;verticalAlign=top;rounded=0;jumpSize=3;strokeWidth=1;" edge="1" parent="1">
          <mxGeometry x="-0.1268" y="-7" relative="1" as="geometry">
            <mxPoint x="1575" y="929" as="sourcePoint" />
            <mxPoint x="1575" y="991" as="targetPoint" />
            <Array as="points">
              <mxPoint x="1575" y="954" />
              <mxPoint x="1615" y="954" />
              <mxPoint x="1615" y="991" />
            </Array>
            <mxPoint as="offset" />
          </mxGeometry>
        </mxCell>
        <mxCell id="q_-s3Jo1m507ARNVv1Sw-24" value="Scheduled alert?" style="edgeLabel;html=1;align=center;verticalAlign=middle;resizable=0;points=[];" vertex="1" connectable="0" parent="q_-s3Jo1m507ARNVv1Sw-23">
          <mxGeometry x="-0.0873" y="-1" relative="1" as="geometry">
            <mxPoint y="17" as="offset" />
          </mxGeometry>
        </mxCell>
        <mxCell id="q_-s3Jo1m507ARNVv1Sw-25" value="" style="endArrow=block;endFill=1;html=1;edgeStyle=orthogonalEdgeStyle;align=left;verticalAlign=top;rounded=0;" edge="1" parent="1">
          <mxGeometry x="-0.0769" y="30" relative="1" as="geometry">
            <mxPoint x="1569.5" y="1077" as="sourcePoint" />
            <mxPoint x="816.5" y="1078" as="targetPoint" />
            <mxPoint as="offset" />
            <Array as="points">
              <mxPoint x="1178" y="1077" />
              <mxPoint x="1178" y="1078" />
            </Array>
          </mxGeometry>
        </mxCell>
        <mxCell id="q_-s3Jo1m507ARNVv1Sw-26" value="Write Data" style="edgeLabel;html=1;align=center;verticalAlign=middle;resizable=0;points=[];" vertex="1" connectable="0" parent="q_-s3Jo1m507ARNVv1Sw-25">
          <mxGeometry x="-0.0153" y="5" relative="1" as="geometry">
            <mxPoint as="offset" />
          </mxGeometry>
        </mxCell>
        <mxCell id="q_-s3Jo1m507ARNVv1Sw-27" value="Alert enrichment" style="shape=umlLifeline;perimeter=lifelinePerimeter;whiteSpace=wrap;html=1;container=0;dropTarget=0;collapsible=0;recursiveResize=0;outlineConnect=0;portConstraint=eastwest;newEdgeStyle={&quot;edgeStyle&quot;:&quot;elbowEdgeStyle&quot;,&quot;elbow&quot;:&quot;vertical&quot;,&quot;curved&quot;:0,&quot;rounded&quot;:0};" vertex="1" parent="1">
          <mxGeometry x="1641" y="40" width="100" height="1079" as="geometry" />
        </mxCell>
        <mxCell id="q_-s3Jo1m507ARNVv1Sw-28" value="" style="html=1;points=[];perimeter=orthogonalPerimeter;outlineConnect=0;targetShapes=umlLifeline;portConstraint=eastwest;newEdgeStyle={&quot;edgeStyle&quot;:&quot;elbowEdgeStyle&quot;,&quot;elbow&quot;:&quot;vertical&quot;,&quot;curved&quot;:0,&quot;rounded&quot;:0};" vertex="1" parent="q_-s3Jo1m507ARNVv1Sw-27">
          <mxGeometry x="45" y="960" width="10" height="70" as="geometry" />
        </mxCell>
        <mxCell id="q_-s3Jo1m507ARNVv1Sw-29" value="" style="endArrow=block;endFill=1;html=1;edgeStyle=orthogonalEdgeStyle;align=left;verticalAlign=top;rounded=0;" edge="1" parent="1">
          <mxGeometry x="-1" relative="1" as="geometry">
            <mxPoint x="1576" y="1019" as="sourcePoint" />
            <mxPoint x="1685" y="1019" as="targetPoint" />
          </mxGeometry>
        </mxCell>
        <mxCell id="q_-s3Jo1m507ARNVv1Sw-31" value="If scheduled alert?" style="edgeLabel;html=1;align=center;verticalAlign=middle;resizable=0;points=[];" vertex="1" connectable="0" parent="q_-s3Jo1m507ARNVv1Sw-29">
          <mxGeometry x="0.0513" y="2" relative="1" as="geometry">
            <mxPoint as="offset" />
          </mxGeometry>
        </mxCell>
        <mxCell id="q_-s3Jo1m507ARNVv1Sw-34" value="" style="html=1;verticalAlign=bottom;endArrow=open;dashed=1;endSize=8;curved=0;rounded=0;" edge="1" parent="1" source="q_-s3Jo1m507ARNVv1Sw-27">
          <mxGeometry x="-1" y="-93" relative="1" as="geometry">
            <mxPoint x="1655" y="1055" as="sourcePoint" />
            <mxPoint x="1575" y="1055" as="targetPoint" />
            <mxPoint x="90" y="68" as="offset" />
          </mxGeometry>
        </mxCell>
        <mxCell id="q_-s3Jo1m507ARNVv1Sw-35" value="Enriched&amp;nbsp;&lt;div&gt;scheduled&lt;div&gt;alert&lt;/div&gt;&lt;/div&gt;" style="edgeLabel;html=1;align=center;verticalAlign=middle;resizable=0;points=[];" vertex="1" connectable="0" parent="q_-s3Jo1m507ARNVv1Sw-34">
          <mxGeometry x="0.1536" y="-1" relative="1" as="geometry">
            <mxPoint as="offset" />
          </mxGeometry>
        </mxCell>
        <mxCell id="q_-s3Jo1m507ARNVv1Sw-36" value="Notif&lt;div&gt;eventcollector db&lt;/div&gt;" style="shape=umlLifeline;perimeter=lifelinePerimeter;whiteSpace=wrap;html=1;container=0;dropTarget=0;collapsible=0;recursiveResize=0;outlineConnect=0;portConstraint=eastwest;newEdgeStyle={&quot;edgeStyle&quot;:&quot;elbowEdgeStyle&quot;,&quot;elbow&quot;:&quot;vertical&quot;,&quot;curved&quot;:0,&quot;rounded&quot;:0};" vertex="1" parent="1">
          <mxGeometry x="1762" y="41" width="100" height="1079" as="geometry" />
        </mxCell>
        <mxCell id="q_-s3Jo1m507ARNVv1Sw-37" value="" style="html=1;points=[];perimeter=orthogonalPerimeter;outlineConnect=0;targetShapes=umlLifeline;portConstraint=eastwest;newEdgeStyle={&quot;edgeStyle&quot;:&quot;elbowEdgeStyle&quot;,&quot;elbow&quot;:&quot;vertical&quot;,&quot;curved&quot;:0,&quot;rounded&quot;:0};" vertex="1" parent="q_-s3Jo1m507ARNVv1Sw-36">
          <mxGeometry x="45" y="560" width="10" height="470" as="geometry" />
        </mxCell>
        <mxCell id="q_-s3Jo1m507ARNVv1Sw-39" value="" style="endArrow=block;endFill=1;html=1;edgeStyle=orthogonalEdgeStyle;align=left;verticalAlign=top;rounded=0;" edge="1" parent="1" target="q_-s3Jo1m507ARNVv1Sw-36">
          <mxGeometry x="-1" y="62" relative="1" as="geometry">
            <mxPoint x="1336" y="649" as="sourcePoint" />
            <mxPoint x="1705" y="652" as="targetPoint" />
            <Array as="points">
              <mxPoint x="1336" y="651" />
            </Array>
            <mxPoint x="-60" y="48" as="offset" />
          </mxGeometry>
        </mxCell>
        <mxCell id="q_-s3Jo1m507ARNVv1Sw-41" value="transcation description&lt;div&gt;balance and amount&lt;/div&gt;" style="edgeLabel;html=1;align=center;verticalAlign=middle;resizable=0;points=[];" vertex="1" connectable="0" parent="q_-s3Jo1m507ARNVv1Sw-39">
          <mxGeometry x="0.0271" y="5" relative="1" as="geometry">
            <mxPoint as="offset" />
          </mxGeometry>
        </mxCell>
        <mxCell id="q_-s3Jo1m507ARNVv1Sw-42" value="Obtain Balances&lt;div&gt;and transcations&lt;/div&gt;" style="html=1;verticalAlign=bottom;endArrow=block;edgeStyle=elbowEdgeStyle;elbow=vertical;curved=0;rounded=0;" edge="1" parent="1">
          <mxGeometry x="-0.0731" y="-14" relative="1" as="geometry">
            <mxPoint x="1700" y="1036" as="sourcePoint" />
            <Array as="points">
              <mxPoint x="1726" y="1036" />
            </Array>
            <mxPoint x="1806.9999999999995" y="1036" as="targetPoint" />
            <mxPoint as="offset" />
          </mxGeometry>
        </mxCell>
        <mxCell id="q_-s3Jo1m507ARNVv1Sw-45" value="delivery" style="shape=umlLifeline;perimeter=lifelinePerimeter;whiteSpace=wrap;html=1;container=0;dropTarget=0;collapsible=0;recursiveResize=0;outlineConnect=0;portConstraint=eastwest;newEdgeStyle={&quot;edgeStyle&quot;:&quot;elbowEdgeStyle&quot;,&quot;elbow&quot;:&quot;vertical&quot;,&quot;curved&quot;:0,&quot;rounded&quot;:0};" vertex="1" parent="1">
          <mxGeometry x="1877" y="40" width="100" height="1320" as="geometry" />
        </mxCell>
        <mxCell id="q_-s3Jo1m507ARNVv1Sw-46" value="" style="html=1;points=[];perimeter=orthogonalPerimeter;outlineConnect=0;targetShapes=umlLifeline;portConstraint=eastwest;newEdgeStyle={&quot;edgeStyle&quot;:&quot;elbowEdgeStyle&quot;,&quot;elbow&quot;:&quot;vertical&quot;,&quot;curved&quot;:0,&quot;rounded&quot;:0};" vertex="1" parent="q_-s3Jo1m507ARNVv1Sw-45">
          <mxGeometry x="45" y="1060" width="10" height="140" as="geometry" />
        </mxCell>
        <mxCell id="q_-s3Jo1m507ARNVv1Sw-47" value="" style="endArrow=block;endFill=1;html=1;edgeStyle=orthogonalEdgeStyle;align=left;verticalAlign=top;rounded=0;" edge="1" parent="1">
          <mxGeometry x="-1" y="62" relative="1" as="geometry">
            <mxPoint x="816.5" y="1142" as="sourcePoint" />
            <mxPoint x="1925.4999999999995" y="1142" as="targetPoint" />
            <Array as="points">
              <mxPoint x="1649" y="1142" />
              <mxPoint x="1649" y="1142" />
            </Array>
            <mxPoint x="-60" y="48" as="offset" />
          </mxGeometry>
        </mxCell>
        <mxCell id="q_-s3Jo1m507ARNVv1Sw-49" value="Read Data" style="edgeLabel;html=1;align=center;verticalAlign=middle;resizable=0;points=[];" vertex="1" connectable="0" parent="q_-s3Jo1m507ARNVv1Sw-47">
          <mxGeometry x="-0.0281" y="-6" relative="1" as="geometry">
            <mxPoint x="23" y="-4" as="offset" />
          </mxGeometry>
        </mxCell>
        <mxCell id="q_-s3Jo1m507ARNVv1Sw-50" value="" style="endArrow=block;endFill=1;html=1;edgeStyle=orthogonalEdgeStyle;align=left;verticalAlign=top;rounded=0;" edge="1" parent="1" source="pxo-jpmPZX1hCJj8SDYN-12">
          <mxGeometry x="-1" y="62" relative="1" as="geometry">
            <mxPoint x="814.5" y="1164" as="sourcePoint" />
            <mxPoint x="1923" y="1164" as="targetPoint" />
            <Array as="points">
              <mxPoint x="990" y="1164" />
              <mxPoint x="990" y="1164" />
            </Array>
            <mxPoint x="-60" y="48" as="offset" />
          </mxGeometry>
        </mxCell>
        <mxCell id="q_-s3Jo1m507ARNVv1Sw-51" value="Get Subscription Data" style="edgeLabel;html=1;align=center;verticalAlign=middle;resizable=0;points=[];" vertex="1" connectable="0" parent="q_-s3Jo1m507ARNVv1Sw-50">
          <mxGeometry x="-0.0281" y="-6" relative="1" as="geometry">
            <mxPoint x="23" y="-4" as="offset" />
          </mxGeometry>
        </mxCell>
        <mxCell id="q_-s3Jo1m507ARNVv1Sw-52" value="" style="endArrow=block;endFill=1;html=1;edgeStyle=orthogonalEdgeStyle;align=left;verticalAlign=top;rounded=0;" edge="1" parent="1">
          <mxGeometry x="-0.0769" y="30" relative="1" as="geometry">
            <mxPoint x="1923.4999999999995" y="1198" as="sourcePoint" />
            <mxPoint x="813.5" y="1199" as="targetPoint" />
            <mxPoint as="offset" />
            <Array as="points">
              <mxPoint x="1175" y="1198" />
            </Array>
          </mxGeometry>
        </mxCell>
        <mxCell id="q_-s3Jo1m507ARNVv1Sw-53" value="Write Data" style="edgeLabel;html=1;align=center;verticalAlign=middle;resizable=0;points=[];" vertex="1" connectable="0" parent="q_-s3Jo1m507ARNVv1Sw-52">
          <mxGeometry x="-0.0153" y="5" relative="1" as="geometry">
            <mxPoint as="offset" />
          </mxGeometry>
        </mxCell>
        <mxCell id="q_-s3Jo1m507ARNVv1Sw-54" value="alert delivery&lt;div&gt;service&lt;/div&gt;" style="shape=umlLifeline;perimeter=lifelinePerimeter;whiteSpace=wrap;html=1;container=0;dropTarget=0;collapsible=0;recursiveResize=0;outlineConnect=0;portConstraint=eastwest;newEdgeStyle={&quot;edgeStyle&quot;:&quot;elbowEdgeStyle&quot;,&quot;elbow&quot;:&quot;vertical&quot;,&quot;curved&quot;:0,&quot;rounded&quot;:0};" vertex="1" parent="1">
          <mxGeometry x="2010" y="39" width="100" height="1320" as="geometry" />
        </mxCell>
        <mxCell id="q_-s3Jo1m507ARNVv1Sw-55" value="" style="html=1;points=[];perimeter=orthogonalPerimeter;outlineConnect=0;targetShapes=umlLifeline;portConstraint=eastwest;newEdgeStyle={&quot;edgeStyle&quot;:&quot;elbowEdgeStyle&quot;,&quot;elbow&quot;:&quot;vertical&quot;,&quot;curved&quot;:0,&quot;rounded&quot;:0};" vertex="1" parent="q_-s3Jo1m507ARNVv1Sw-54">
          <mxGeometry x="45" y="1130" width="10" height="60" as="geometry" />
        </mxCell>
        <mxCell id="q_-s3Jo1m507ARNVv1Sw-56" value="secure inbox, iron port email gateway, sms gateway, azure push service" style="rounded=0;whiteSpace=wrap;html=1;" vertex="1" parent="1">
          <mxGeometry x="1940" y="110" width="110" height="54.5" as="geometry" />
        </mxCell>
        <mxCell id="q_-s3Jo1m507ARNVv1Sw-59" value="" style="endArrow=none;html=1;rounded=0;" edge="1" parent="1">
          <mxGeometry width="50" height="50" relative="1" as="geometry">
            <mxPoint x="1984" y="105" as="sourcePoint" />
            <mxPoint x="2014" y="85" as="targetPoint" />
          </mxGeometry>
        </mxCell>
        <mxCell id="q_-s3Jo1m507ARNVv1Sw-60" value="forward alert to&lt;div&gt;delivery service&amp;nbsp;&lt;/div&gt;&lt;div&gt;identified in&amp;nbsp;&lt;/div&gt;&lt;div&gt;subscription&lt;/div&gt;" style="html=1;verticalAlign=bottom;endArrow=block;edgeStyle=elbowEdgeStyle;elbow=vertical;curved=0;rounded=0;" edge="1" parent="1" target="q_-s3Jo1m507ARNVv1Sw-55">
          <mxGeometry x="-0.0731" y="-14" relative="1" as="geometry">
            <mxPoint x="1932" y="1184" as="sourcePoint" />
            <Array as="points">
              <mxPoint x="1958" y="1184" />
            </Array>
            <mxPoint x="2038.9999999999995" y="1184" as="targetPoint" />
            <mxPoint as="offset" />
          </mxGeometry>
        </mxCell>
        <mxCell id="q_-s3Jo1m507ARNVv1Sw-61" value="alert history" style="shape=umlLifeline;perimeter=lifelinePerimeter;whiteSpace=wrap;html=1;container=0;dropTarget=0;collapsible=0;recursiveResize=0;outlineConnect=0;portConstraint=eastwest;newEdgeStyle={&quot;edgeStyle&quot;:&quot;elbowEdgeStyle&quot;,&quot;elbow&quot;:&quot;vertical&quot;,&quot;curved&quot;:0,&quot;rounded&quot;:0};" vertex="1" parent="1">
          <mxGeometry x="2130" y="40" width="100" height="1320" as="geometry" />
        </mxCell>
        <mxCell id="q_-s3Jo1m507ARNVv1Sw-62" value="" style="html=1;points=[];perimeter=orthogonalPerimeter;outlineConnect=0;targetShapes=umlLifeline;portConstraint=eastwest;newEdgeStyle={&quot;edgeStyle&quot;:&quot;elbowEdgeStyle&quot;,&quot;elbow&quot;:&quot;vertical&quot;,&quot;curved&quot;:0,&quot;rounded&quot;:0};" vertex="1" parent="q_-s3Jo1m507ARNVv1Sw-61">
          <mxGeometry x="45" y="1189" width="10" height="91" as="geometry" />
        </mxCell>
        <mxCell id="q_-s3Jo1m507ARNVv1Sw-63" value="" style="endArrow=block;endFill=1;html=1;edgeStyle=orthogonalEdgeStyle;align=left;verticalAlign=top;rounded=0;" edge="1" parent="1">
          <mxGeometry x="-1" y="62" relative="1" as="geometry">
            <mxPoint x="816.5" y="1255" as="sourcePoint" />
            <mxPoint x="2179.4999999999995" y="1255" as="targetPoint" />
            <Array as="points">
              <mxPoint x="1830" y="1255" />
              <mxPoint x="1830" y="1255" />
            </Array>
            <mxPoint x="-60" y="48" as="offset" />
          </mxGeometry>
        </mxCell>
        <mxCell id="q_-s3Jo1m507ARNVv1Sw-64" value="Read Data" style="edgeLabel;html=1;align=center;verticalAlign=middle;resizable=0;points=[];" vertex="1" connectable="0" parent="q_-s3Jo1m507ARNVv1Sw-63">
          <mxGeometry x="-0.0281" y="-6" relative="1" as="geometry">
            <mxPoint x="23" y="-4" as="offset" />
          </mxGeometry>
        </mxCell>
        <mxCell id="q_-s3Jo1m507ARNVv1Sw-65" value="" style="endArrow=block;endFill=1;html=1;edgeStyle=orthogonalEdgeStyle;align=left;verticalAlign=top;rounded=0;" edge="1" parent="1" source="q_-s3Jo1m507ARNVv1Sw-61">
          <mxGeometry x="-0.0769" y="30" relative="1" as="geometry">
            <mxPoint x="1927.4999999999995" y="1308" as="sourcePoint" />
            <mxPoint x="817.5" y="1309" as="targetPoint" />
            <mxPoint as="offset" />
            <Array as="points">
              <mxPoint x="1179" y="1308" />
            </Array>
          </mxGeometry>
        </mxCell>
        <mxCell id="q_-s3Jo1m507ARNVv1Sw-66" value="Write Data" style="edgeLabel;html=1;align=center;verticalAlign=middle;resizable=0;points=[];" vertex="1" connectable="0" parent="q_-s3Jo1m507ARNVv1Sw-65">
          <mxGeometry x="-0.0153" y="5" relative="1" as="geometry">
            <mxPoint as="offset" />
          </mxGeometry>
        </mxCell>
        <mxCell id="q_-s3Jo1m507ARNVv1Sw-67" value="notifi alert db" style="shape=umlLifeline;perimeter=lifelinePerimeter;whiteSpace=wrap;html=1;container=0;dropTarget=0;collapsible=0;recursiveResize=0;outlineConnect=0;portConstraint=eastwest;newEdgeStyle={&quot;edgeStyle&quot;:&quot;elbowEdgeStyle&quot;,&quot;elbow&quot;:&quot;vertical&quot;,&quot;curved&quot;:0,&quot;rounded&quot;:0};" vertex="1" parent="1">
          <mxGeometry x="2251" y="40" width="100" height="1320" as="geometry" />
        </mxCell>
        <mxCell id="q_-s3Jo1m507ARNVv1Sw-68" value="" style="html=1;points=[];perimeter=orthogonalPerimeter;outlineConnect=0;targetShapes=umlLifeline;portConstraint=eastwest;newEdgeStyle={&quot;edgeStyle&quot;:&quot;elbowEdgeStyle&quot;,&quot;elbow&quot;:&quot;vertical&quot;,&quot;curved&quot;:0,&quot;rounded&quot;:0};" vertex="1" parent="q_-s3Jo1m507ARNVv1Sw-67">
          <mxGeometry x="45" y="1204.5" width="10" height="60" as="geometry" />
        </mxCell>
        <mxCell id="q_-s3Jo1m507ARNVv1Sw-69" value="catalogs alert&lt;div&gt;delivery&lt;/div&gt;" style="html=1;verticalAlign=bottom;endArrow=block;edgeStyle=elbowEdgeStyle;elbow=vertical;curved=0;rounded=0;" edge="1" parent="1">
          <mxGeometry x="0.0642" y="-2" relative="1" as="geometry">
            <mxPoint x="2188" y="1284" as="sourcePoint" />
            <Array as="points">
              <mxPoint x="2194" y="1278" />
            </Array>
            <mxPoint x="2291" y="1278" as="targetPoint" />
            <mxPoint as="offset" />
          </mxGeometry>
        </mxCell>
        <mxCell id="q_-s3Jo1m507ARNVv1Sw-70" value="rpt-sync" style="shape=umlLifeline;perimeter=lifelinePerimeter;whiteSpace=wrap;html=1;container=0;dropTarget=0;collapsible=0;recursiveResize=0;outlineConnect=0;portConstraint=eastwest;newEdgeStyle={&quot;edgeStyle&quot;:&quot;elbowEdgeStyle&quot;,&quot;elbow&quot;:&quot;vertical&quot;,&quot;curved&quot;:0,&quot;rounded&quot;:0};" vertex="1" parent="1">
          <mxGeometry x="2373" y="40" width="100" height="1400" as="geometry" />
        </mxCell>
        <mxCell id="q_-s3Jo1m507ARNVv1Sw-71" value="" style="html=1;points=[];perimeter=orthogonalPerimeter;outlineConnect=0;targetShapes=umlLifeline;portConstraint=eastwest;newEdgeStyle={&quot;edgeStyle&quot;:&quot;elbowEdgeStyle&quot;,&quot;elbow&quot;:&quot;vertical&quot;,&quot;curved&quot;:0,&quot;rounded&quot;:0};" vertex="1" parent="q_-s3Jo1m507ARNVv1Sw-70">
          <mxGeometry x="45" y="1287.5" width="10" height="60" as="geometry" />
        </mxCell>
        <mxCell id="q_-s3Jo1m507ARNVv1Sw-72" value="notifireporting db" style="shape=umlLifeline;perimeter=lifelinePerimeter;whiteSpace=wrap;html=1;container=0;dropTarget=0;collapsible=0;recursiveResize=0;outlineConnect=0;portConstraint=eastwest;newEdgeStyle={&quot;edgeStyle&quot;:&quot;elbowEdgeStyle&quot;,&quot;elbow&quot;:&quot;vertical&quot;,&quot;curved&quot;:0,&quot;rounded&quot;:0};" vertex="1" parent="1">
          <mxGeometry x="2494" y="41" width="100" height="1399" as="geometry" />
        </mxCell>
        <mxCell id="q_-s3Jo1m507ARNVv1Sw-73" value="" style="html=1;points=[];perimeter=orthogonalPerimeter;outlineConnect=0;targetShapes=umlLifeline;portConstraint=eastwest;newEdgeStyle={&quot;edgeStyle&quot;:&quot;elbowEdgeStyle&quot;,&quot;elbow&quot;:&quot;vertical&quot;,&quot;curved&quot;:0,&quot;rounded&quot;:0};" vertex="1" parent="q_-s3Jo1m507ARNVv1Sw-72">
          <mxGeometry x="45" y="1300" width="10" height="45.5" as="geometry" />
        </mxCell>
        <mxCell id="q_-s3Jo1m507ARNVv1Sw-74" value="" style="endArrow=block;endFill=1;html=1;edgeStyle=orthogonalEdgeStyle;align=left;verticalAlign=top;rounded=0;" edge="1" parent="1" target="q_-s3Jo1m507ARNVv1Sw-70">
          <mxGeometry x="-1" y="62" relative="1" as="geometry">
            <mxPoint x="818.5" y="1349" as="sourcePoint" />
            <mxPoint x="2181.4999999999995" y="1349" as="targetPoint" />
            <Array as="points">
              <mxPoint x="1596" y="1350" />
            </Array>
            <mxPoint x="-60" y="48" as="offset" />
          </mxGeometry>
        </mxCell>
        <mxCell id="q_-s3Jo1m507ARNVv1Sw-75" value="Read Data" style="edgeLabel;html=1;align=center;verticalAlign=middle;resizable=0;points=[];" vertex="1" connectable="0" parent="q_-s3Jo1m507ARNVv1Sw-74">
          <mxGeometry x="-0.0281" y="-6" relative="1" as="geometry">
            <mxPoint x="23" y="-4" as="offset" />
          </mxGeometry>
        </mxCell>
        <mxCell id="q_-s3Jo1m507ARNVv1Sw-76" value="catalogs alert" style="html=1;verticalAlign=bottom;endArrow=block;edgeStyle=elbowEdgeStyle;elbow=vertical;curved=0;rounded=0;" edge="1" parent="1">
          <mxGeometry x="0.0642" y="-2" relative="1" as="geometry">
            <mxPoint x="2431" y="1365" as="sourcePoint" />
            <Array as="points">
              <mxPoint x="2437" y="1359" />
            </Array>
            <mxPoint x="2534" y="1359" as="targetPoint" />
            <mxPoint as="offset" />
          </mxGeometry>
        </mxCell>
      </root>
    </mxGraphModel>
  </diagram>
</mxfile>
